<?xml version="1.0" encoding="UTF-8" standalone="no"?>
<svg
   viewBox="0 0 1280 800"
   data-background-color="#f23a2e"
   preserveAspectRatio="xMidYMid meet"
   height="800"
   width="1280"
   version="1.1"
   id="svg952"
   xmlns="http://www.w3.org/2000/svg"
   xmlns:svg="http://www.w3.org/2000/svg">
  <defs
     id="defs956">
    <defs
       id="defs945" />
  </defs>
  <g
     id="g910">
    <svg
       version="1.1"
       id="svg908"
       width="100%"
       height="100%" />
  </g>
  <g
     id="g1161"
     transform="scale(2)">
    <rect
       width="640"
       height="400"
       x="0"
       y="0"
       opacity="1"
       fill="#f23a2e"
       data-fill-palette-color="background"
       id="background" />
    <g
       id="g1139"
       transform="translate(87.54568,74.776)">
      <svg
         viewBox="0 0 395.52 247.2"
         height="247.2"
         width="395.51999"
         version="1.1"
         id="svg941">
        <g
           transform="translate(75.54432,106.65666)"
           id="g937">
          <svg
             viewBox="0 0 244.43136 33.886684"
             height="33.886684"
             width="244.43137"
             version="1.1"
             id="svg935">
            <g
               id="g933">
              <svg
                 viewBox="0 0 244.43136 33.886684"
                 height="33.886684"
                 width="244.43137"
                 version="1.1"
                 id="svg931">
                <g
                   id="g929">
                  <svg
                     viewBox="0 0 244.43136 33.886684"
                     height="33.886684"
                     width="244.43137"
                     version="1.1"
                     id="svg927">
                    <g
                       id="g925">
                      <svg
                         viewBox="0 0 244.43136 33.886684"
                         height="33.886684"
                         width="244.43137"
                         version="1.1"
                         id="svg923">
                        <g
                           id="textblocktransform">
                          <svg
                             viewBox="0 0 244.43136 33.886684"
                             height="33.886684"
                             width="244.43137"
                             id="textblock"
                             version="1.1">
                            <g
                               id="g919">
                              <svg
                                 viewBox="0 0 244.43136 33.886684"
                                 height="33.886684"
                                 width="244.43137"
                                 version="1.1"
                                 id="svg917">
                                <g
                                   id="g915">
                                <svg
                                   width="244.43137"
                                   viewBox="4.9099998 -37.990002 277.51001 38.480003"
                                   height="33.886684"
                                   data-palette-color="#ffffff"
                                   version="1.1"
                                   id="svg913">
                                <path
                                   d="M 24.8,0 H 4.91 V -35.69 H 9.06 V -3.76 H 24.8 Z m 24.9,0 h -3 l -0.8,-3.81 h -0.2 q -2,2.52 -3.99,3.41 -1.99,0.89 -4.97,0.89 v 0 q -3.98,0 -6.24,-2.05 -2.26,-2.05 -2.26,-5.84 v 0 q 0,-8.1 12.97,-8.49 v 0 l 4.54,-0.15 v -1.66 q 0,-3.15 -1.36,-4.65 -1.35,-1.5 -4.33,-1.5 v 0 q -3.34,0 -7.57,2.05 v 0 l -1.24,-3.1 q 1.98,-1.08 4.33,-1.69 2.36,-0.61 4.73,-0.61 v 0 q 4.78,0 7.09,2.13 2.3,2.12 2.3,6.81 v 0 z M 37.55,-2.86 v 0 q 3.78,0 5.94,-2.07 2.16,-2.08 2.16,-5.81 v 0 -2.42 l -4.05,0.17 q -4.83,0.17 -6.97,1.5 -2.14,1.33 -2.14,4.14 v 0 q 0,2.2 1.33,3.35 1.33,1.14 3.73,1.14 z m 32.71,-24.39 v 0 q 1.78,0 3.2,0.3 v 0 l -0.56,3.76 q -1.66,-0.37 -2.93,-0.37 v 0 q -3.25,0 -5.56,2.64 -2.31,2.63 -2.31,6.56 v 0 V 0 h -4.05 v -26.76 h 3.35 l 0.46,4.96 h 0.2 q 1.48,-2.61 3.58,-4.03 2.1,-1.42 4.62,-1.42 z M 97.92,0 h -3.01 l -0.8,-3.81 h -0.2 q -2,2.52 -3.99,3.41 -1.99,0.89 -4.97,0.89 v 0 q -3.98,0 -6.23,-2.05 -2.26,-2.05 -2.26,-5.84 v 0 q 0,-8.1 12.96,-8.49 v 0 l 4.54,-0.15 v -1.66 q 0,-3.15 -1.35,-4.65 -1.36,-1.5 -4.34,-1.5 v 0 q -3.34,0 -7.56,2.05 v 0 l -1.25,-3.1 q 1.98,-1.08 4.33,-1.69 2.36,-0.61 4.73,-0.61 v 0 q 4.78,0 7.09,2.13 2.31,2.12 2.31,6.81 v 0 z M 85.76,-2.86 v 0 q 3.78,0 5.94,-2.07 2.16,-2.08 2.16,-5.81 v 0 -2.42 l -4.05,0.17 q -4.83,0.17 -6.97,1.5 -2.13,1.33 -2.13,4.14 v 0 q 0,2.2 1.33,3.35 1.33,1.14 3.72,1.14 z M 116.86,0 h -4.74 l -10.15,-26.76 h 4.34 l 5.76,15.87 q 1.96,5.57 2.3,7.23 v 0 h 0.2 q 0.26,-1.3 1.69,-5.36 1.43,-4.07 6.41,-17.74 v 0 h 4.35 z m 25.75,0.49 v 0 q -5.93,0 -9.36,-3.62 -3.43,-3.61 -3.43,-10.03 v 0 q 0,-6.47 3.19,-10.28 3.18,-3.81 8.55,-3.81 v 0 q 5.03,0 7.96,3.31 2.93,3.31 2.93,8.73 v 0 2.56 h -18.43 q 0.12,4.72 2.38,7.16 2.26,2.44 6.36,2.44 v 0 q 4.32,0 8.55,-1.81 v 0 3.61 q -2.15,0.93 -4.07,1.34 -1.92,0.4 -4.63,0.4 z m -1.09,-24.34 v 0 q -3.23,0 -5.14,2.1 -1.92,2.1 -2.26,5.81 v 0 h 13.99 q 0,-3.84 -1.71,-5.87 -1.71,-2.04 -4.88,-2.04 z m 21.89,-14.14 V 0 h -4.05 v -37.99 z m 37.47,5.49 v 0 q -5.88,0 -9.29,3.92 -3.4,3.92 -3.4,10.73 v 0 q 0,7.01 3.28,10.83 3.29,3.82 9.36,3.82 v 0 q 3.74,0 8.53,-1.34 v 0 3.64 q -3.72,1.39 -9.16,1.39 v 0 q -7.89,0 -12.17,-4.79 -4.29,-4.78 -4.29,-13.6 v 0 q 0,-5.51 2.07,-9.66 2.06,-4.15 5.95,-6.4 3.9,-2.25 9.17,-2.25 v 0 q 5.62,0 9.82,2.05 v 0 l -1.76,3.57 q -4.05,-1.91 -8.11,-1.91 z M 236.28,0 h -3.34 l -12.11,-31.64 h -0.2 q 0.34,3.76 0.34,8.93 v 0 V 0 h -3.83 v -35.69 h 6.25 l 11.3,29.44 h 0.2 l 11.4,-29.44 h 6.2 V 0 h -4.15 v -23 q 0,-3.95 0.34,-8.59 v 0 h -0.19 z m 46.14,-9.5 v 0 q 0,4.71 -3.42,7.35 -3.41,2.64 -9.27,2.64 v 0 q -6.35,0 -9.77,-1.64 v 0 -4 q 2.2,0.93 4.79,1.46 2.58,0.54 5.12,0.54 v 0 q 4.15,0 6.25,-1.57 2.1,-1.58 2.1,-4.39 v 0 q 0,-1.85 -0.74,-3.04 -0.75,-1.18 -2.49,-2.18 -1.75,-1 -5.31,-2.27 v 0 q -4.98,-1.78 -7.12,-4.23 -2.14,-2.44 -2.14,-6.37 v 0 q 0,-4.12 3.1,-6.56 3.11,-2.45 8.21,-2.45 v 0 q 5.32,0 9.79,1.96 v 0 l -1.3,3.61 q -4.41,-1.86 -8.59,-1.86 v 0 q -3.3,0 -5.15,1.42 -1.86,1.42 -1.86,3.93 v 0 q 0,1.86 0.69,3.04 0.68,1.19 2.3,2.17 1.63,0.99 4.97,2.19 v 0 q 5.62,2 7.73,4.3 2.11,2.29 2.11,5.95 z"
                                   opacity="1"
                                   fill="#ffffff"
                                   class="undefined-text-0"
                                   data-fill-palette-color="primary"
                                   id="text-0" />
                                </svg>
                                </g>
                              </svg>
                            </g>
                          </svg>
                        </g>
                      </svg>
                    </g>
                  </svg>
                </g>
              </svg>
            </g>
          </svg>
        </g>
        <path
           d="M 211.703,100.657 V 37.224 H 384.455 V 209.976 H 211.703 v -63.433 h 3.056 v 60.377 h 166.64 V 40.28 h -166.64 v 60.377 z"
           fill="#ffffff"
           stroke="transparent"
           data-fill-palette-color="primary"
           id="path939" />
      </svg>
    </g>
  </g>
</svg>
